<?xml version="1.0" encoding="utf-8"?>
<!-- Generator: Adobe Illustrator 16.0.0, SVG Export Plug-In . SVG Version: 6.00 Build 0)  -->
<!DOCTYPE svg PUBLIC "-//W3C//DTD SVG 1.1//EN" "http://www.w3.org/Graphics/SVG/1.1/DTD/svg11.dtd">
<svg version="1.1" id="Capa_1" xmlns="http://www.w3.org/2000/svg" xmlns:xlink="http://www.w3.org/1999/xlink" x="0px" y="0px"
	 width="114px" height="132.793px" viewBox="0 0 114 132.793" enable-background="new 0 0 114 132.793" xml:space="preserve">
<g>
	<g>
		<path fill="#C40808" d="M30.295,60.89c0-4.375,0.4-8.154,1.201-11.338c0.8-3.183,1.855-5.859,3.164-8.027
			c1.308-2.168,2.822-3.916,4.541-5.244c1.718-1.328,3.486-2.353,5.303-3.076c1.816-0.722,3.633-1.201,5.449-1.436
			s3.486-0.352,5.01-0.352c1.445,0,3.056,0.108,4.834,0.322c1.777,0.215,3.574,0.665,5.391,1.348
			c1.816,0.684,3.574,1.68,5.273,2.988c1.699,1.309,3.203,3.057,4.512,5.244c1.308,2.188,2.363,4.883,3.164,8.086
			c0.8,3.204,1.201,7.031,1.201,11.484v70.305c-3.838-0.034-22.969,0.059-24.375,0.059c-2.108,0-16.813,0-24.668-0.059V60.89z"/>
	</g>
	<rect x="23.317" y="126.45" fill="#C40808" width="63" height="6.344"/>
	<path fill="#C40808" d="M49.656,0h10.322l-1.172,24.417h-7.826L49.656,0z"/>
	<path fill="#C40808" d="M81.793,7.103l8.325,6.103L74.87,32.024l-6.312-4.626L81.793,7.103z"/>
	<path fill="#C40808" d="M41.075,27.791l-6.312,4.626L19.515,13.598l8.325-6.103L41.075,27.791z"/>
</g>
</svg>
